<svg width="541" height="517" viewBox="0 0 541 517" fill="none" xmlns="http://www.w3.org/2000/svg">
<path d="M262.191 0.638924C284.136 -2.38166 310.786 5.63514 328.561 17.7804C350.246 32.4292 364.796 54.5146 369.006 79.1731C389.731 73.725 411.496 72.6381 432.726 75.9921C458.411 79.8837 484.771 90.3834 504.411 106.665C506.061 108.032 507.466 109.378 508.761 111.052C508.766 114.069 508.606 117.102 508.486 120.119C516.456 125.739 534.271 136.076 540.686 141.823C541.056 150.726 540.756 161.569 540.761 170.63L540.791 226.086V396.541L540.801 473.235C540.801 479.138 541.216 503.371 540.151 508.178C535.761 513.415 529.371 507.666 525.451 504.882C500.501 487.172 474.931 472.014 444.731 463.485C398.641 450.476 349.766 461.751 311.796 488.105C300.906 495.663 288.851 509.629 277.806 515.201C273.646 516.637 267.376 517.504 263.406 515.233C250.69 507.955 241.226 496.424 229.118 488.082C215.834 478.929 202.195 471.683 186.58 466.53C132.201 447.273 79.9314 462.637 34.3029 492.11C28.6749 495.58 23.7019 499.184 18.1784 502.858C14.1474 505.539 6.97588 513.298 1.79588 508.999C0.283875 507.745 0.220377 505.511 0.216377 503.725C0.170377 483.493 0.246384 463.262 0.245384 443.029L0.233375 319.348L0.220878 204.411C0.212378 184.442 -0.345117 161.614 0.344383 141.838C5.37438 137.43 25.7394 124.594 32.3004 120.276L32.2464 93.0907C32.2404 90.2548 31.5964 76.4654 33.8389 75.6098C39.5419 73.4341 51.7664 74.1382 58.1044 74.1526L89.0799 74.1531C115.668 74.1475 146.672 72.1541 171.955 79.0099C174.681 62.7376 182.014 47.4383 193.197 34.6911C210.658 14.8312 234.928 3.21327 262.191 0.638924Z" fill="#1F1E1E"/>
<path d="M382.566 213.804C383.936 214.696 386.072 218.511 387.052 220.085C398.222 238.636 410.627 257.029 421.757 275.536C436.701 300.393 437.797 296.383 451.892 274.566C458.507 264.224 465.227 253.933 472.037 243.7C477.652 251.294 484.377 262.004 489.647 270.02C490.222 307.714 489.657 346.462 489.727 384.268C463.477 366.652 434.797 356.529 402.222 355.821C373.712 355.34 345.631 362.358 321.191 376.062C316.586 378.636 313.067 380.767 308.867 383.942C302.022 389.122 307.887 396.308 313.657 394.62C317.837 393.394 325.607 387.947 330.037 385.537C344.452 377.801 360.222 372.523 376.617 369.94C420.907 362.819 454.577 375.838 489.657 398.84L489.751 462.142C462.406 448.569 431.377 439.733 400.162 440.866C353.197 442.558 308.917 461.723 277.212 494.078L277.222 388.894C307.112 341.613 368.822 324.64 424.457 332.716C430.002 333.528 435.501 334.577 440.941 335.864C446.341 337.151 459.567 342.55 464.087 338.176C466.087 336.241 465.007 331.532 462.372 329.863C457.857 327.009 452.602 326.128 447.422 324.747C390.127 309.281 314.622 321.857 277.162 368C277.162 364.246 278.167 354.823 275.607 351.992C272.012 348.024 264.187 349.335 263.707 355.527C263.372 359.835 263.627 364.008 263.737 368.387C233.757 334.833 196.175 320.658 150.304 318.457C129.403 318.108 110.711 319.814 90.498 325.134C86.1765 326.37 80.6625 327.242 77.2125 330.128C72.4125 334.194 76.4105 340.918 82.7105 339.972C88.3135 339.132 93.5085 337.034 99.0405 335.784C112.771 332.67 126.83 330.982 140.958 330.758C188.055 330.236 239.094 348.63 262.962 388.582C264.142 390.563 263.697 418.62 263.697 423.138L263.762 493.705C247.446 478.686 233.716 468.027 213.074 458.216C159.869 432.93 103.039 435.914 51.1065 462.357L51.077 398C53.8855 396.462 58.121 393.506 60.982 391.715C68.7495 386.861 75.8535 382.842 84.514 379.331C121.089 364.144 162.905 364.381 199.28 379.979C208.668 383.989 216.011 388.829 224.577 393.809C228.278 395.263 232.919 395.133 234.081 390.983C235.766 384.963 227.451 380.79 222.344 377.755C204.69 367.095 184.796 360.078 163.996 357.182C124.047 351.61 83.367 361.15 50.9995 383.686C51.4785 360.409 51.095 335.938 51.0095 312.591C56.481 309.029 66.774 300.482 72.338 296.239L121.47 258.932C128.69 261.706 140.293 267.283 147.147 270.724C167.93 281.169 166.67 278.161 178.423 262.699C184.835 254.287 191.304 245.919 197.83 237.588C214.18 254.595 229.373 273.181 245.543 290.387C251.316 296.528 258.832 304.492 263.717 311.146C263.772 315.17 262.717 325.363 264.882 327.937C269.927 333.929 277.987 329.177 277.182 321.679C276.907 319.133 277.117 313.841 277.152 311.435C285.232 302.268 295.037 292.229 303.672 283.556C309.427 287.37 322.467 297.461 328.612 297.489C334.482 295.106 347.171 271.74 350.876 265.674L382.566 213.804Z" fill="#CCC0E5"/>
<path d="M396.726 393.734C407.436 393.823 416.331 394.615 427.086 396.956C435.191 398.723 436.871 406.408 428.856 408.921C426.181 409.76 418.756 407.601 415.396 407.219C407.851 406.361 400.646 405.918 392.941 406.319C377.216 407.042 361.821 410.795 347.731 417.342C341.686 420.196 326.296 431.96 321.181 427.111C313.836 420.14 328.896 413.248 333.861 410.413C353.361 399.283 374.091 394.503 396.726 393.734Z" fill="#1F1E1E"/>
<path d="M139.51 393.734C154.069 393.002 170.941 395.949 184.922 400.705C190.473 402.593 224.738 415.943 220.431 425.012C216.179 433.97 202.81 422.508 196.504 419.347C172.907 407.242 147.38 403.293 121.048 408.124C118.043 408.632 111.623 410.166 109.209 407.601C100.68 398.555 115.846 396.061 121.751 395.296C128.767 394.392 133.359 394.009 139.51 393.734Z" fill="#1F1E1E"/>
<path d="M51.0892 91.4559C69.2972 91.6149 87.5057 91.6606 105.714 91.5934C129.109 91.5748 147.667 89.8943 170.149 96.5938C171.34 137.698 191.998 153.544 217.335 183.995C232.288 201.966 249.427 220.682 263.651 239.088L263.716 292.667C259.376 286.843 251.891 278.972 246.847 273.377L218.368 241.781C215.018 238.236 211.789 234.423 208.457 230.646C204.979 226.705 198.661 219.101 192.627 224.639C188.486 228.44 184.424 234.462 180.972 239.005L161.832 264.354C154.105 261.394 129.666 247.998 120.87 246.475C117.542 245.899 106.758 254.493 103.12 257.337C86.0683 270.668 67.7882 283.495 51.0592 297.255C50.6907 275.205 51.1098 251.979 51.1133 229.834L51.0892 91.4559Z" fill="#94EBFE"/>
<path d="M402.866 91.5753C432.261 89.8421 466.931 100.018 489.646 117.612L489.751 248.708C485.861 242.467 481.076 234.338 475.636 229.27C472.831 227.376 468.251 228.129 466.386 230.533C455.421 244.658 446.726 261.011 436.481 275.503L405.056 225.545C399.871 217.26 394.736 208.82 389.496 200.67C387.046 196.264 381.401 194.141 377.576 198.518C374.501 202.039 371.941 207.084 369.531 211.076C354.641 235.183 339.881 259.361 325.261 283.612C319.216 279.966 313.671 275.424 307.286 272.263C298.911 268.113 294.531 275.587 289.651 280.572C285.461 284.862 281.331 289.329 277.181 293.693C276.771 276.193 277.101 257.081 277.191 239.504C293.276 219.023 311.586 197.996 328.531 178.079C352.976 149.348 368.471 135.565 370.756 96.6046C381.646 93.5071 391.591 92.2113 402.866 91.5753Z" fill="#94EBFE"/>
<path d="M265.586 17.9003C283.681 15.996 304.276 22.4204 318.726 32.5616C336.536 45.0678 348.241 63.6953 351.241 84.2961C356.836 123.178 335.631 141.326 312.191 169.172C299.251 184.435 286.441 199.793 273.761 215.243L270.771 218.92C255.804 201.021 240.735 183.197 225.564 165.448C217.839 156.393 204.532 141.958 198.909 132.542C193.47 123.625 190.121 113.734 189.084 103.52C186.767 82.3755 193.677 61.2515 208.255 44.913C223.016 28.4219 242.864 19.7234 265.586 17.9003Z" fill="#9B3BA9"/>
<path d="M267.691 61.023C286.826 59.7296 303.511 73.0513 305.086 90.8843C306.666 108.717 292.546 124.407 273.436 126.054C254.063 127.724 236.949 114.33 235.351 96.2456C233.752 78.1608 248.283 62.3342 267.691 61.023Z" fill="#1F1E1E"/>
<path d="M267.471 78.2265C276.441 76.8207 284.941 82.4632 286.451 90.8306C287.961 99.1981 281.911 107.123 272.936 108.533C263.961 109.944 255.462 104.301 253.951 95.9303C252.441 87.5601 258.496 79.6333 267.471 78.2265Z" fill="#FEFEFD"/>
<path d="M31.5453 142.1L31.9203 142.425C32.4148 144.025 32.2128 160.292 32.2128 163.116L32.2153 218.113L32.2218 472.154C27.5358 475.096 23.8308 477.581 19.3623 480.808L18.9988 480.491C18.5458 478.947 18.7168 462.236 18.7163 459.746L18.7138 404.813L18.7033 150.674C22.9268 148.184 27.4793 144.898 31.5453 142.1Z" fill="#FEFEFD"/>
<path d="M508.681 141.842C510.086 142.38 520.246 149.312 522.126 150.566L522.176 481.139C517.761 478.01 513.031 475.091 508.446 472.172C508.981 440.857 508.591 408.627 508.581 377.265L508.681 141.842Z" fill="#FEFEFD"/>
</svg>
